<svg width="85" height="85" viewBox="0 0 85 85" fill="none" xmlns="http://www.w3.org/2000/svg">
<path d="M38.5 2.3094C40.9752 0.880339 44.0248 0.880339 46.5 2.3094L75.3061 18.9406C77.7813 20.3697 79.3061 23.0107 79.3061 25.8688V59.1312C79.3061 61.9893 77.7813 64.6303 75.3061 66.0594L46.5 82.6906C44.0248 84.1197 40.9752 84.1197 38.5 82.6906L9.69392 66.0594C7.21871 64.6303 5.69392 61.9893 5.69392 59.1312V25.8688C5.69392 23.0107 7.21871 20.3697 9.69392 18.9406L38.5 2.3094Z" fill="#1597E5"/>
<path d="M26.42 58C26.1267 58 25.98 57.8533 25.98 57.56L28.004 28.08C28.004 27.7867 28.1507 27.64 28.444 27.64C28.5907 27.64 28.7227 27.6987 28.84 27.816L34.34 32.744C34.868 33.2133 35.3373 33.668 35.748 34.108C36.1587 33.668 36.628 33.2133 37.156 32.744L42.656 27.816C42.7733 27.6987 42.9053 27.64 43.052 27.64C43.3453 27.64 43.492 27.7867 43.492 28.08L45.516 57.56C45.516 57.8533 45.3693 58 45.076 58C44.7533 58 44.592 57.8533 44.592 57.56L42.656 29.092L37.728 33.448C37.2 33.9173 36.7453 34.372 36.364 34.812C36.9507 35.5453 37.3613 36.2493 37.596 36.924C37.86 37.5987 37.992 38.288 37.992 38.992C37.992 39.784 37.8453 40.5027 37.552 41.148C37.288 41.7933 36.98 42.424 36.628 43.04C36.4813 43.304 36.364 43.524 36.276 43.7C36.5693 44.2867 36.8187 44.9467 37.024 45.68C37.2587 46.4133 37.376 47.2493 37.376 48.188C37.376 48.98 37.2293 49.728 36.936 50.432C36.6427 51.1067 36.2467 51.444 35.748 51.444C35.2493 51.444 34.8533 51.1067 34.56 50.432C34.2667 49.728 34.12 48.98 34.12 48.188C34.12 47.2493 34.2227 46.4133 34.428 45.68C34.6627 44.9467 34.9267 44.2867 35.22 43.7C35.132 43.524 35.0147 43.304 34.868 43.04C34.516 42.424 34.1933 41.7933 33.9 41.148C33.636 40.5027 33.504 39.784 33.504 38.992C33.504 37.584 34.0467 36.1907 35.132 34.812C34.7507 34.372 34.296 33.9173 33.768 33.448L28.84 29.092L26.904 57.56C26.904 57.8533 26.7427 58 26.42 58ZM35.66 42.556L35.748 42.732L35.836 42.556C36.1587 41.9693 36.4373 41.3973 36.672 40.84C36.936 40.2533 37.068 39.6373 37.068 38.992C37.068 37.848 36.628 36.6893 35.748 35.516C34.868 36.6893 34.428 37.848 34.428 38.992C34.428 39.6373 34.5453 40.2533 34.78 40.84C35.044 41.3973 35.3373 41.9693 35.66 42.556ZM35.044 48.188C35.044 48.6867 35.1173 49.1707 35.264 49.64C35.4107 50.1093 35.572 50.388 35.748 50.476C35.8947 50.388 36.0413 50.1093 36.188 49.64C36.364 49.1707 36.452 48.6867 36.452 48.188C36.452 47.5133 36.3787 46.8973 36.232 46.34C36.1147 45.7827 35.9533 45.2547 35.748 44.756C35.5427 45.2547 35.3667 45.7827 35.22 46.34C35.1027 46.8973 35.044 47.5133 35.044 48.188ZM55.1159 58C54.0012 58 52.9599 57.736 51.9919 57.208C51.0532 56.6507 50.2612 55.9173 49.6159 55.008C48.9999 54.0693 48.5892 53.0133 48.3839 51.84C48.3252 51.488 48.4719 51.312 48.8239 51.312C49.0879 51.312 49.2492 51.444 49.3079 51.708C49.5426 53.2333 50.2026 54.5093 51.2879 55.536C52.4026 56.5627 53.6786 57.076 55.1159 57.076C55.9959 57.076 56.8759 56.8853 57.7559 56.504C58.6652 56.1227 59.4132 55.5067 59.9999 54.656C60.5866 53.8053 60.8799 52.6613 60.8799 51.224C60.8799 49.9333 60.6452 48.848 60.1759 47.968C59.7066 47.0587 59.0612 46.2373 58.2399 45.504C57.4479 44.7413 56.5386 43.964 55.5119 43.172L54.6759 42.512C53.7079 41.7493 52.8279 40.9867 52.0359 40.224C51.2439 39.432 50.5986 38.5227 50.0999 37.496C49.6306 36.4693 49.3959 35.2373 49.3959 33.8C49.3959 32.2747 49.7039 31.0573 50.3199 30.148C50.9359 29.2093 51.7132 28.52 52.6519 28.08C53.5906 27.64 54.5292 27.42 55.4679 27.42C56.8466 27.42 57.9906 27.772 58.8999 28.476C59.8092 29.18 60.4839 30.1773 60.9239 31.468C60.9826 31.6733 60.9679 31.8493 60.8799 31.996C60.8212 32.1133 60.7039 32.172 60.5279 32.172C60.3226 32.172 60.1759 32.0547 60.0879 31.82C59.7066 30.7053 59.1492 29.8547 58.4159 29.268C57.6826 28.652 56.7146 28.344 55.5119 28.344C54.1332 28.344 52.9306 28.8133 51.9039 29.752C50.8772 30.6613 50.3639 32.0107 50.3639 33.8C50.3639 35.0907 50.5692 36.2053 50.9799 37.144C51.4199 38.0533 52.0212 38.8747 52.7839 39.608C53.5466 40.3413 54.3972 41.0893 55.3359 41.852L55.9519 42.336C57.0372 43.1867 58.0199 44.0227 58.8999 44.844C59.8092 45.6653 60.5279 46.5747 61.0559 47.572C61.5839 48.5693 61.8479 49.7867 61.8479 51.224C61.8479 53.2773 61.2172 54.92 59.9559 56.152C58.7239 57.384 57.1106 58 55.1159 58Z" fill="white"/>
</svg>
